<?xml version="1.0"?>
<svg xmlns="http://www.w3.org/2000/svg" xmlns:xlink="http://www.w3.org/1999/xlink" version="1.1" id="Capa_1" x="0px" y="0px" width="512px" height="512px" viewBox="0 0 612.02 612.02" style="enable-background:new 0 0 612.02 612.02;" xml:space="preserve" class=""><g><link xmlns="" type="text/css" id="dark-mode" rel="stylesheet" href="" class="active-path" style="fill:#00DDFF" data-old_color="#00D6FF"/><style xmlns="" type="text/css" id="dark-mode-custom-style" class="active-path" style="fill:#00DDFF" data-old_color="#00D6FF"/><g>
	<g>
		<g>
			<path d="M592.874,306c0-79.215-32.116-150.938-84.017-202.858C456.938,51.242,385.214,19.126,306,19.126     s-150.938,32.116-202.838,84.016C51.242,155.062,19.126,226.785,19.126,306s32.116,150.958,84.016,202.857     s123.644,84.016,202.838,84.016c79.214,0,150.938-32.115,202.858-84.016C560.758,456.958,592.874,385.234,592.874,306     L592.874,306z M522.386,89.634C577.752,145,612.02,221.506,612.02,306.02c0,84.494-34.247,160.999-89.634,216.386     C466.999,577.771,390.494,612.02,306,612.02s-160.999-34.247-216.386-89.634C34.268,467.019,0,390.514,0,306     c0-84.494,34.248-161,89.634-216.386C144.981,34.268,221.486,0,306,0C390.494,0,466.999,34.248,522.386,89.634z" data-original="#000000" class="active-path" data-old_color="#00D6FF" fill="#38c695"/>
			<path d="M296.457,439.903c5.279,0,9.563,4.282,9.563,9.562c0,5.279-4.284,9.563-9.563,9.563h-76.505     c-5.279,0-9.563-4.283-9.563-9.563s4.284-9.562,9.563-9.562H296.457z" data-original="#000000" class="active-path" data-old_color="#00D6FF" fill="#38c695"/>
			<path d="M334.709,344.292c-5.279,0-9.562-4.283-9.562-9.563c0-5.279,4.282-9.562,9.562-9.562     c18.469,0,35.225-7.491,47.338-19.604l0.538-0.498c11.774-12.034,19.086-28.57,19.086-46.819     c0-18.489-7.511-35.244-19.624-47.337l-0.498-0.538c-12.054-11.814-28.59-19.106-46.84-19.106H219.952     c-5.279,0-9.563-4.284-9.563-9.563c0-5.28,4.284-9.563,9.563-9.563h114.757c23.41,0,44.708,9.404,60.248,24.665l0.617,0.558     c15.561,15.56,25.223,37.097,25.223,60.865c0,23.41-9.403,44.688-24.645,60.228l-0.559,0.617     C380.015,334.649,358.478,344.292,334.709,344.292z" data-original="#000000" class="active-path" data-old_color="#00D6FF" fill="#38c695"/>
			<path d="M219.932,344.292c-5.279,0-9.563-4.283-9.563-9.563c0-5.279,4.284-9.562,9.563-9.562H334.67     c5.279,0,9.563,4.283,9.563,9.562s-4.283,9.563-9.563,9.563H219.932z" data-original="#000000" class="active-path" data-old_color="#00D6FF" fill="#38c695"/>
			<path d="M267.748,449.467c0,5.279-4.284,9.563-9.563,9.563c-5.28,0-9.563-4.283-9.563-9.563V181.719     c0-5.28,4.284-9.562,9.563-9.562c5.279,0,9.563,4.284,9.563,9.562V449.467z" data-original="#000000" class="active-path" data-old_color="#00D6FF" fill="#38c695"/>
			<path d="M219.932,382.545c-5.279,0-9.563-4.284-9.563-9.562c0-5.279,4.284-9.563,9.563-9.563h133.904     c5.279,0,9.563,4.284,9.563,9.563c0,5.278-4.283,9.562-9.563,9.562H219.932z" data-original="#000000" class="active-path" data-old_color="#00D6FF" fill="#38c695"/>
		</g>
	</g>
</g></g> </svg>
